<mxfile modified="2022-05-02T08:01:14.556Z" host="app.diagrams.net" agent="5.0 (Windows NT 10.0; Win64; x64) AppleWebKit/537.36 (KHTML, like Gecko) Chrome/100.0.4896.127 Safari/537.36 Edg/100.0.1185.50" etag="N9a-7j-dAg7quP2XkBtf" compressed="false" version="17.5.0" type="google">
  <diagram id="hbhtlsC5WST3zJC881ve" name="ISO-29110-Basic-Project Management Processes, Activities, Tasks">
    <mxGraphModel grid="1" page="1" gridSize="10" guides="1" tooltips="1" connect="1" arrows="1" fold="1" pageScale="1" pageWidth="827" pageHeight="1169" math="0" shadow="0">
      <root>
        <mxCell id="LK1oiG8ELNqy3hZ6TInz-0" />
        <mxCell id="LK1oiG8ELNqy3hZ6TInz-1" parent="LK1oiG8ELNqy3hZ6TInz-0" />
        <mxCell id="LK1oiG8ELNqy3hZ6TInz-2" style="edgeStyle=elbowEdgeStyle;rounded=0;jumpStyle=arc;orthogonalLoop=1;jettySize=auto;html=1;entryX=0.5;entryY=1;entryDx=0;entryDy=0;startSize=2;endArrow=classicThin;endFill=1;endSize=3;strokeColor=#999999;strokeWidth=1;fillColor=none;gradientColor=#ffffff;fontSize=10;exitX=1;exitY=0.5;exitDx=0;exitDy=0;" edge="1" parent="LK1oiG8ELNqy3hZ6TInz-1" source="LK1oiG8ELNqy3hZ6TInz-5" target="LK1oiG8ELNqy3hZ6TInz-11">
          <mxGeometry relative="1" as="geometry">
            <Array as="points">
              <mxPoint x="460" y="290" />
            </Array>
          </mxGeometry>
        </mxCell>
        <mxCell id="LK1oiG8ELNqy3hZ6TInz-3" style="edgeStyle=elbowEdgeStyle;rounded=0;jumpStyle=arc;orthogonalLoop=1;jettySize=auto;html=1;entryX=1;entryY=0.25;entryDx=0;entryDy=0;startSize=2;endArrow=classicThin;endFill=1;endSize=3;strokeColor=#999999;strokeWidth=1;fillColor=none;gradientColor=#ffffff;fontSize=10;" edge="1" parent="LK1oiG8ELNqy3hZ6TInz-1" target="LK1oiG8ELNqy3hZ6TInz-10">
          <mxGeometry relative="1" as="geometry">
            <mxPoint x="320" y="300" as="sourcePoint" />
          </mxGeometry>
        </mxCell>
        <mxCell id="LK1oiG8ELNqy3hZ6TInz-4" style="edgeStyle=none;rounded=0;jumpStyle=arc;orthogonalLoop=1;jettySize=auto;html=1;entryX=0.5;entryY=0;entryDx=0;entryDy=0;endArrow=classicThin;endFill=1;strokeColor=#999999;strokeWidth=1;fillColor=none;gradientColor=#ffffff;fontSize=10;shape=flexArrow;" edge="1" parent="LK1oiG8ELNqy3hZ6TInz-1" source="LK1oiG8ELNqy3hZ6TInz-5" target="LK1oiG8ELNqy3hZ6TInz-20">
          <mxGeometry relative="1" as="geometry" />
        </mxCell>
        <mxCell id="LK1oiG8ELNqy3hZ6TInz-5" value="Project Planning" style="rounded=1;whiteSpace=wrap;html=1;strokeColor=#808080;strokeWidth=2;fontSize=10;align=center;" vertex="1" parent="LK1oiG8ELNqy3hZ6TInz-1">
          <mxGeometry x="320" y="280" width="80" height="40" as="geometry" />
        </mxCell>
        <mxCell id="LK1oiG8ELNqy3hZ6TInz-6" style="edgeStyle=elbowEdgeStyle;rounded=0;jumpStyle=arc;orthogonalLoop=1;jettySize=auto;html=1;startSize=2;endArrow=classicThin;endFill=1;endSize=3;strokeColor=#999999;strokeWidth=1;fillColor=none;gradientColor=#ffffff;fontSize=10;" edge="1" parent="LK1oiG8ELNqy3hZ6TInz-1" source="LK1oiG8ELNqy3hZ6TInz-7">
          <mxGeometry relative="1" as="geometry">
            <mxPoint x="320" y="290" as="targetPoint" />
          </mxGeometry>
        </mxCell>
        <mxCell id="LK1oiG8ELNqy3hZ6TInz-7" value="Statement of Work (SoW)" style="rounded=0;whiteSpace=wrap;html=1;strokeColor=#808080;strokeWidth=1;fontSize=10;align=center;" vertex="1" parent="LK1oiG8ELNqy3hZ6TInz-1">
          <mxGeometry x="160" y="250" width="80" height="20" as="geometry" />
        </mxCell>
        <mxCell id="LK1oiG8ELNqy3hZ6TInz-8" style="edgeStyle=elbowEdgeStyle;rounded=0;jumpStyle=arc;orthogonalLoop=1;jettySize=auto;html=1;startSize=2;endArrow=classicThin;endFill=1;endSize=3;strokeColor=#999999;strokeWidth=1;fillColor=none;gradientColor=#ffffff;fontSize=10;exitX=1;exitY=0.5;exitDx=0;exitDy=0;" edge="1" parent="LK1oiG8ELNqy3hZ6TInz-1" source="LK1oiG8ELNqy3hZ6TInz-9">
          <mxGeometry relative="1" as="geometry">
            <mxPoint x="320" y="290" as="targetPoint" />
          </mxGeometry>
        </mxCell>
        <mxCell id="LK1oiG8ELNqy3hZ6TInz-9" value="Verification Results" style="rounded=0;whiteSpace=wrap;html=1;strokeColor=#808080;strokeWidth=1;fontSize=10;align=center;" vertex="1" parent="LK1oiG8ELNqy3hZ6TInz-1">
          <mxGeometry x="160" y="280" width="80" height="20" as="geometry" />
        </mxCell>
        <mxCell id="LK1oiG8ELNqy3hZ6TInz-10" value="Meeting Record" style="rounded=0;whiteSpace=wrap;html=1;strokeColor=#808080;strokeWidth=1;fontSize=10;align=center;" vertex="1" parent="LK1oiG8ELNqy3hZ6TInz-1">
          <mxGeometry x="160" y="310" width="80" height="20" as="geometry" />
        </mxCell>
        <mxCell id="LK1oiG8ELNqy3hZ6TInz-11" value="Project Repositor(ies)" style="rounded=0;whiteSpace=wrap;html=1;strokeColor=#808080;strokeWidth=1;fontSize=10;align=center;" vertex="1" parent="LK1oiG8ELNqy3hZ6TInz-1">
          <mxGeometry x="420" y="250" width="80" height="20" as="geometry" />
        </mxCell>
        <mxCell id="LK1oiG8ELNqy3hZ6TInz-12" style="edgeStyle=elbowEdgeStyle;rounded=0;jumpStyle=arc;orthogonalLoop=1;jettySize=auto;html=1;entryX=1;entryY=0.75;entryDx=0;entryDy=0;startSize=2;endArrow=classicThin;endFill=1;endSize=3;strokeColor=#999999;strokeWidth=1;fillColor=none;gradientColor=#ffffff;fontSize=10;exitX=0;exitY=0.25;exitDx=0;exitDy=0;" edge="1" parent="LK1oiG8ELNqy3hZ6TInz-1" source="LK1oiG8ELNqy3hZ6TInz-25" target="LK1oiG8ELNqy3hZ6TInz-34">
          <mxGeometry relative="1" as="geometry">
            <Array as="points">
              <mxPoint x="300" y="480" />
            </Array>
          </mxGeometry>
        </mxCell>
        <mxCell id="LK1oiG8ELNqy3hZ6TInz-13" style="edgeStyle=elbowEdgeStyle;rounded=0;jumpStyle=arc;orthogonalLoop=1;jettySize=auto;html=1;entryX=0;entryY=0.5;entryDx=0;entryDy=0;startSize=2;endArrow=classicThin;endFill=1;endSize=3;strokeColor=#999999;strokeWidth=1;fillColor=none;gradientColor=#ffffff;fontSize=10;exitX=1;exitY=0.5;exitDx=0;exitDy=0;" edge="1" parent="LK1oiG8ELNqy3hZ6TInz-1" source="LK1oiG8ELNqy3hZ6TInz-20" target="LK1oiG8ELNqy3hZ6TInz-36">
          <mxGeometry relative="1" as="geometry">
            <mxPoint x="320" y="520" as="sourcePoint" />
          </mxGeometry>
        </mxCell>
        <mxCell id="LK1oiG8ELNqy3hZ6TInz-14" style="edgeStyle=elbowEdgeStyle;rounded=0;jumpStyle=arc;orthogonalLoop=1;jettySize=auto;html=1;entryX=0;entryY=0.5;entryDx=0;entryDy=0;startSize=2;endArrow=classicThin;endFill=1;endSize=3;strokeColor=#999999;strokeWidth=1;fillColor=none;gradientColor=#ffffff;fontSize=10;exitX=1;exitY=0.5;exitDx=0;exitDy=0;" edge="1" parent="LK1oiG8ELNqy3hZ6TInz-1" source="LK1oiG8ELNqy3hZ6TInz-20" target="LK1oiG8ELNqy3hZ6TInz-28">
          <mxGeometry relative="1" as="geometry">
            <mxPoint x="320" y="520" as="sourcePoint" />
          </mxGeometry>
        </mxCell>
        <mxCell id="LK1oiG8ELNqy3hZ6TInz-15" style="edgeStyle=elbowEdgeStyle;rounded=0;jumpStyle=arc;orthogonalLoop=1;jettySize=auto;html=1;entryX=0;entryY=0.5;entryDx=0;entryDy=0;startSize=2;endArrow=classicThin;endFill=1;endSize=3;strokeColor=#999999;strokeWidth=1;fillColor=none;gradientColor=#ffffff;fontSize=10;exitX=1;exitY=0.5;exitDx=0;exitDy=0;" edge="1" parent="LK1oiG8ELNqy3hZ6TInz-1" source="LK1oiG8ELNqy3hZ6TInz-20" target="LK1oiG8ELNqy3hZ6TInz-27">
          <mxGeometry relative="1" as="geometry">
            <mxPoint x="320" y="520" as="sourcePoint" />
            <Array as="points" />
          </mxGeometry>
        </mxCell>
        <mxCell id="LK1oiG8ELNqy3hZ6TInz-16" style="edgeStyle=elbowEdgeStyle;rounded=0;jumpStyle=arc;orthogonalLoop=1;jettySize=auto;html=1;entryX=0;entryY=0.5;entryDx=0;entryDy=0;startSize=2;endArrow=classicThin;endFill=1;endSize=3;strokeColor=#999999;strokeWidth=1;fillColor=none;gradientColor=#ffffff;fontSize=10;" edge="1" parent="LK1oiG8ELNqy3hZ6TInz-1" source="LK1oiG8ELNqy3hZ6TInz-20" target="LK1oiG8ELNqy3hZ6TInz-41">
          <mxGeometry relative="1" as="geometry">
            <Array as="points">
              <mxPoint x="410" y="480" />
            </Array>
          </mxGeometry>
        </mxCell>
        <mxCell id="LK1oiG8ELNqy3hZ6TInz-17" style="edgeStyle=elbowEdgeStyle;rounded=0;jumpStyle=arc;orthogonalLoop=1;jettySize=auto;html=1;entryX=0;entryY=0.5;entryDx=0;entryDy=0;startSize=2;endArrow=classicThin;endFill=1;endSize=3;strokeColor=#999999;strokeWidth=1;fillColor=none;gradientColor=#ffffff;fontSize=10;exitX=1;exitY=0.5;exitDx=0;exitDy=0;" edge="1" parent="LK1oiG8ELNqy3hZ6TInz-1" source="LK1oiG8ELNqy3hZ6TInz-20" target="LK1oiG8ELNqy3hZ6TInz-37">
          <mxGeometry relative="1" as="geometry" />
        </mxCell>
        <mxCell id="LK1oiG8ELNqy3hZ6TInz-18" style="edgeStyle=elbowEdgeStyle;rounded=0;jumpStyle=arc;orthogonalLoop=1;jettySize=auto;html=1;entryX=0;entryY=0.5;entryDx=0;entryDy=0;startSize=2;endArrow=classicThin;endFill=1;endSize=3;strokeColor=#999999;strokeWidth=1;fillColor=none;gradientColor=#ffffff;fontSize=10;exitX=1;exitY=0.5;exitDx=0;exitDy=0;" edge="1" parent="LK1oiG8ELNqy3hZ6TInz-1" source="LK1oiG8ELNqy3hZ6TInz-20" target="LK1oiG8ELNqy3hZ6TInz-40">
          <mxGeometry relative="1" as="geometry" />
        </mxCell>
        <mxCell id="LK1oiG8ELNqy3hZ6TInz-19" style="edgeStyle=none;rounded=0;jumpStyle=arc;orthogonalLoop=1;jettySize=auto;html=1;entryX=0.5;entryY=0;entryDx=0;entryDy=0;endArrow=classicThin;endFill=1;strokeColor=#999999;strokeWidth=1;fillColor=none;gradientColor=#ffffff;fontSize=10;shape=flexArrow;exitX=0.5;exitY=1;exitDx=0;exitDy=0;" edge="1" parent="LK1oiG8ELNqy3hZ6TInz-1" source="LK1oiG8ELNqy3hZ6TInz-20" target="LK1oiG8ELNqy3hZ6TInz-25">
          <mxGeometry relative="1" as="geometry">
            <mxPoint x="360" y="410" as="sourcePoint" />
          </mxGeometry>
        </mxCell>
        <mxCell id="LK1oiG8ELNqy3hZ6TInz-20" value="Project Plan Execution" style="rounded=1;whiteSpace=wrap;html=1;strokeColor=#808080;strokeWidth=2;fontSize=10;align=center;" vertex="1" parent="LK1oiG8ELNqy3hZ6TInz-1">
          <mxGeometry x="320" y="360" width="80" height="40" as="geometry" />
        </mxCell>
        <mxCell id="LK1oiG8ELNqy3hZ6TInz-21" style="edgeStyle=elbowEdgeStyle;rounded=0;jumpStyle=arc;orthogonalLoop=1;jettySize=auto;html=1;entryX=1;entryY=0.5;entryDx=0;entryDy=0;startSize=2;endArrow=classicThin;endFill=1;endSize=3;strokeColor=#999999;strokeWidth=1;fillColor=none;gradientColor=#ffffff;fontSize=10;exitX=0;exitY=0.5;exitDx=0;exitDy=0;" edge="1" parent="LK1oiG8ELNqy3hZ6TInz-1" source="LK1oiG8ELNqy3hZ6TInz-25" target="LK1oiG8ELNqy3hZ6TInz-26">
          <mxGeometry relative="1" as="geometry">
            <mxPoint x="320" y="500" as="sourcePoint" />
          </mxGeometry>
        </mxCell>
        <mxCell id="LK1oiG8ELNqy3hZ6TInz-22" style="edgeStyle=elbowEdgeStyle;rounded=0;jumpStyle=arc;orthogonalLoop=1;jettySize=auto;html=1;entryX=1;entryY=0.5;entryDx=0;entryDy=0;startSize=2;endArrow=classicThin;endFill=1;endSize=3;strokeColor=#999999;strokeWidth=1;fillColor=none;gradientColor=#ffffff;fontSize=10;exitX=0;exitY=0.75;exitDx=0;exitDy=0;" edge="1" parent="LK1oiG8ELNqy3hZ6TInz-1" source="LK1oiG8ELNqy3hZ6TInz-25" target="LK1oiG8ELNqy3hZ6TInz-35">
          <mxGeometry relative="1" as="geometry">
            <Array as="points">
              <mxPoint x="280" y="480" />
            </Array>
          </mxGeometry>
        </mxCell>
        <mxCell id="LK1oiG8ELNqy3hZ6TInz-23" style="rounded=0;jumpStyle=arc;orthogonalLoop=1;jettySize=auto;html=1;entryX=1;entryY=0.5;entryDx=0;entryDy=0;startSize=2;endArrow=classicThin;endFill=1;endSize=3;strokeColor=#999999;strokeWidth=1;fillColor=none;gradientColor=#ffffff;fontSize=10;exitX=0;exitY=0.5;exitDx=0;exitDy=0;" edge="1" parent="LK1oiG8ELNqy3hZ6TInz-1" source="LK1oiG8ELNqy3hZ6TInz-29" target="LK1oiG8ELNqy3hZ6TInz-30">
          <mxGeometry relative="1" as="geometry" />
        </mxCell>
        <mxCell id="LK1oiG8ELNqy3hZ6TInz-24" style="edgeStyle=none;rounded=0;jumpStyle=arc;orthogonalLoop=1;jettySize=auto;html=1;entryX=0.5;entryY=0;entryDx=0;entryDy=0;endArrow=classicThin;endFill=1;strokeColor=#999999;strokeWidth=1;fillColor=none;gradientColor=#ffffff;fontSize=10;shape=flexArrow;" edge="1" parent="LK1oiG8ELNqy3hZ6TInz-1" source="LK1oiG8ELNqy3hZ6TInz-25" target="LK1oiG8ELNqy3hZ6TInz-29">
          <mxGeometry relative="1" as="geometry" />
        </mxCell>
        <mxCell id="LK1oiG8ELNqy3hZ6TInz-25" value="Project Assessment" style="rounded=1;whiteSpace=wrap;html=1;strokeColor=#808080;strokeWidth=2;fontSize=10;align=center;" vertex="1" parent="LK1oiG8ELNqy3hZ6TInz-1">
          <mxGeometry x="320" y="440" width="80" height="40" as="geometry" />
        </mxCell>
        <mxCell id="LK1oiG8ELNqy3hZ6TInz-26" value="Change Request" style="rounded=0;whiteSpace=wrap;html=1;strokeColor=#808080;strokeWidth=1;fontSize=10;align=center;" vertex="1" parent="LK1oiG8ELNqy3hZ6TInz-1">
          <mxGeometry x="160" y="450" width="80" height="20" as="geometry" />
        </mxCell>
        <mxCell id="LK1oiG8ELNqy3hZ6TInz-27" value="System Configuration" style="rounded=0;whiteSpace=wrap;html=1;strokeColor=#808080;strokeWidth=1;fontSize=10;align=center;" vertex="1" parent="LK1oiG8ELNqy3hZ6TInz-1">
          <mxGeometry x="420" y="520" width="80" height="30" as="geometry" />
        </mxCell>
        <mxCell id="LK1oiG8ELNqy3hZ6TInz-28" value="System Documentation" style="rounded=0;whiteSpace=wrap;html=1;strokeColor=#808080;strokeWidth=1;fontSize=10;align=center;" vertex="1" parent="LK1oiG8ELNqy3hZ6TInz-1">
          <mxGeometry x="420" y="440" width="80" height="30" as="geometry" />
        </mxCell>
        <mxCell id="LK1oiG8ELNqy3hZ6TInz-29" value="Project Closure" style="rounded=1;whiteSpace=wrap;html=1;strokeColor=#808080;strokeWidth=2;fontSize=10;align=center;" vertex="1" parent="LK1oiG8ELNqy3hZ6TInz-1">
          <mxGeometry x="320" y="520" width="80" height="40" as="geometry" />
        </mxCell>
        <mxCell id="LK1oiG8ELNqy3hZ6TInz-30" value="Acceptance&amp;nbsp; Record&amp;nbsp;" style="rounded=0;whiteSpace=wrap;html=1;strokeColor=#808080;strokeWidth=1;fontSize=10;align=center;" vertex="1" parent="LK1oiG8ELNqy3hZ6TInz-1">
          <mxGeometry x="160" y="530" width="80" height="20" as="geometry" />
        </mxCell>
        <mxCell id="LK1oiG8ELNqy3hZ6TInz-31" style="rounded=0;jumpStyle=arc;orthogonalLoop=1;jettySize=auto;html=1;entryX=0;entryY=0.75;entryDx=0;entryDy=0;startSize=2;endArrow=classicThin;endFill=1;endSize=3;strokeColor=#999999;strokeWidth=1;fillColor=none;gradientColor=#ffffff;fontSize=10;exitX=1;exitY=0.75;exitDx=0;exitDy=0;" edge="1" parent="LK1oiG8ELNqy3hZ6TInz-1" source="LK1oiG8ELNqy3hZ6TInz-32" target="LK1oiG8ELNqy3hZ6TInz-20">
          <mxGeometry relative="1" as="geometry" />
        </mxCell>
        <mxCell id="LK1oiG8ELNqy3hZ6TInz-32" value="Project Plan" style="rounded=0;whiteSpace=wrap;html=1;strokeColor=#808080;strokeWidth=1;fontSize=10;align=center;" vertex="1" parent="LK1oiG8ELNqy3hZ6TInz-1">
          <mxGeometry x="160" y="375" width="80" height="20" as="geometry" />
        </mxCell>
        <mxCell id="LK1oiG8ELNqy3hZ6TInz-33" style="edgeStyle=elbowEdgeStyle;rounded=0;jumpStyle=arc;orthogonalLoop=1;jettySize=auto;html=1;startSize=2;endArrow=classicThin;endFill=1;endSize=3;strokeColor=#999999;strokeWidth=1;fillColor=none;gradientColor=#ffffff;fontSize=10;exitX=1;exitY=0.25;exitDx=0;exitDy=0;entryX=0;entryY=1;entryDx=0;entryDy=0;" edge="1" parent="LK1oiG8ELNqy3hZ6TInz-1" source="LK1oiG8ELNqy3hZ6TInz-34" target="LK1oiG8ELNqy3hZ6TInz-5">
          <mxGeometry relative="1" as="geometry">
            <mxPoint x="400" y="310" as="targetPoint" />
            <Array as="points">
              <mxPoint x="300" y="380" />
            </Array>
          </mxGeometry>
        </mxCell>
        <mxCell id="LK1oiG8ELNqy3hZ6TInz-34" value="Project Status Record" style="rounded=0;whiteSpace=wrap;html=1;strokeColor=#808080;strokeWidth=1;fontSize=10;align=center;" vertex="1" parent="LK1oiG8ELNqy3hZ6TInz-1">
          <mxGeometry x="160" y="405" width="80" height="20" as="geometry" />
        </mxCell>
        <mxCell id="LK1oiG8ELNqy3hZ6TInz-35" value="Correction Register" style="rounded=0;whiteSpace=wrap;html=1;strokeColor=#808080;strokeWidth=1;fontSize=10;align=center;" vertex="1" parent="LK1oiG8ELNqy3hZ6TInz-1">
          <mxGeometry x="160" y="480" width="80" height="20" as="geometry" />
        </mxCell>
        <mxCell id="LK1oiG8ELNqy3hZ6TInz-36" value="Logical System" style="rounded=0;whiteSpace=wrap;html=1;strokeColor=#808080;strokeWidth=1;fontSize=10;align=center;" vertex="1" parent="LK1oiG8ELNqy3hZ6TInz-1">
          <mxGeometry x="420" y="400" width="80" height="30" as="geometry" />
        </mxCell>
        <mxCell id="LK1oiG8ELNqy3hZ6TInz-37" value="Deployment Pipeline System" style="rounded=0;whiteSpace=wrap;html=1;strokeColor=#808080;strokeWidth=1;fontSize=10;align=center;" vertex="1" parent="LK1oiG8ELNqy3hZ6TInz-1">
          <mxGeometry x="420" y="360" width="80" height="30" as="geometry" />
        </mxCell>
        <mxCell id="LK1oiG8ELNqy3hZ6TInz-38" style="edgeStyle=elbowEdgeStyle;rounded=0;jumpStyle=arc;orthogonalLoop=1;jettySize=auto;html=1;exitX=0;exitY=0.75;exitDx=0;exitDy=0;entryX=1;entryY=0.5;entryDx=0;entryDy=0;startSize=2;endArrow=classicThin;endFill=1;endSize=3;strokeColor=#999999;strokeWidth=1;fillColor=none;gradientColor=#ffffff;fontSize=10;" edge="1" parent="LK1oiG8ELNqy3hZ6TInz-1" source="LK1oiG8ELNqy3hZ6TInz-5" target="LK1oiG8ELNqy3hZ6TInz-32">
          <mxGeometry relative="1" as="geometry">
            <Array as="points">
              <mxPoint x="290" y="370" />
            </Array>
          </mxGeometry>
        </mxCell>
        <mxCell id="LK1oiG8ELNqy3hZ6TInz-39" style="edgeStyle=elbowEdgeStyle;rounded=0;jumpStyle=arc;orthogonalLoop=1;jettySize=auto;html=1;startSize=2;endArrow=classicThin;endFill=1;endSize=3;strokeColor=#999999;strokeWidth=1;fillColor=none;gradientColor=#ffffff;fontSize=10;entryX=1;entryY=0.75;entryDx=0;entryDy=0;exitX=0;exitY=0.5;exitDx=0;exitDy=0;" edge="1" parent="LK1oiG8ELNqy3hZ6TInz-1" source="LK1oiG8ELNqy3hZ6TInz-20" target="LK1oiG8ELNqy3hZ6TInz-10">
          <mxGeometry relative="1" as="geometry">
            <mxPoint x="580" y="320" as="targetPoint" />
            <Array as="points">
              <mxPoint x="280" y="380" />
            </Array>
          </mxGeometry>
        </mxCell>
        <mxCell id="LK1oiG8ELNqy3hZ6TInz-40" value="Design, Development &lt;br&gt;&amp;amp; Delivery IP" style="rounded=0;whiteSpace=wrap;html=1;strokeColor=#808080;strokeWidth=1;fontSize=10;align=center;" vertex="1" parent="LK1oiG8ELNqy3hZ6TInz-1">
          <mxGeometry x="420" y="310" width="80" height="40" as="geometry" />
        </mxCell>
        <mxCell id="LK1oiG8ELNqy3hZ6TInz-41" value="T&amp;amp;C&lt;br&gt;&amp;amp; Disclosures" style="rounded=0;whiteSpace=wrap;html=1;strokeColor=#808080;strokeWidth=1;fontSize=10;align=center;" vertex="1" parent="LK1oiG8ELNqy3hZ6TInz-1">
          <mxGeometry x="420" y="480" width="80" height="30" as="geometry" />
        </mxCell>
        <mxCell id="LK1oiG8ELNqy3hZ6TInz-42" value="Control" style="rounded=0;whiteSpace=wrap;html=1;strokeWidth=1;fontSize=10;align=center;fillColor=#f5f5f5;fontColor=#333333;strokeColor=none;fontStyle=1" vertex="1" parent="LK1oiG8ELNqy3hZ6TInz-1">
          <mxGeometry x="160" y="220" width="80" height="20" as="geometry" />
        </mxCell>
        <mxCell id="LK1oiG8ELNqy3hZ6TInz-43" value="Deliverables" style="rounded=0;whiteSpace=wrap;html=1;strokeWidth=1;fontSize=10;align=center;fillColor=#f5f5f5;fontColor=#333333;strokeColor=none;fontStyle=1" vertex="1" parent="LK1oiG8ELNqy3hZ6TInz-1">
          <mxGeometry x="420" y="220" width="80" height="20" as="geometry" />
        </mxCell>
        <mxCell id="LK1oiG8ELNqy3hZ6TInz-44" value="Stages" style="rounded=0;whiteSpace=wrap;html=1;strokeWidth=1;fontSize=10;align=center;fillColor=#f5f5f5;fontColor=#333333;strokeColor=none;fontStyle=1" vertex="1" parent="LK1oiG8ELNqy3hZ6TInz-1">
          <mxGeometry x="320" y="220" width="80" height="20" as="geometry" />
        </mxCell>
        <mxCell id="LK1oiG8ELNqy3hZ6TInz-45" value="&lt;font style=&quot;font-size: 12px&quot;&gt;&lt;span style=&quot;font-size: 12px&quot;&gt;Diagram: &lt;/span&gt;Delivery - Methodologies - ISO/IEC 29110 &lt;br&gt;Project Management Process Activities &amp;amp; Tasks&lt;br&gt;&lt;br&gt;&lt;/font&gt;" style="text;strokeColor=none;fillColor=none;html=1;fontSize=12;fontStyle=2;verticalAlign=middle;align=left;shadow=0;glass=0;comic=0;opacity=30;fontColor=#808080;" vertex="1" parent="LK1oiG8ELNqy3hZ6TInz-1">
          <mxGeometry x="120" y="560" width="520" height="40" as="geometry" />
        </mxCell>
      </root>
    </mxGraphModel>
  </diagram>
</mxfile>
